<svg xmlns="http://www.w3.org/2000/svg" viewBox="114 386 199 208" width="100" height="104">
  <path fill="#299D91" stroke="none" d="
    M252.000092,386.651917
    C262.499725,386.654694 272.499634,386.612366 282.498932,386.670624
    C299.659302,386.770569 313.311310,400.371368 313.323944,417.468292
    C313.359436,465.633118 313.341553,513.798035 313.334473,561.962891
    C313.331818,580.126038 300.471405,594.006653 282.177368,594.142090
    C236.514954,594.480164 190.847366,594.434814 145.184036,594.168091
    C127.975761,594.067627 114.691315,579.990112 114.681038,562.882690
    C114.651909,514.384460 114.648972,465.886230 114.686371,417.388062
    C114.699654,400.160065 128.204224,386.692078 145.504196,386.667572
    C180.836105,386.617523 216.168121,386.652283 252.000092,386.651917
    M278.198517,487.664307
    C279.948822,485.456940 282.047302,483.354187 281.263000,480.156586
    C280.556396,477.275787 279.124512,474.933777 276.075867,473.951660
    C272.482269,472.793976 269.903809,474.745178 267.654236,476.971527
    C255.939545,488.565186 244.213303,500.151550 232.739944,511.981842
    C229.542648,515.278564 227.604202,515.271057 224.410629,511.963440
    C214.582413,501.784149 204.492294,491.853241 194.355621,481.978058
    C188.994736,476.755432 186.757233,476.878479 181.376114,482.124481
    C176.369171,487.005707 171.426514,491.954895 166.534637,496.951599
    C159.779541,503.851532 152.977890,510.712677 146.431671,517.807739
    C142.566666,521.996765 142.575058,526.115784 145.808380,529.341858
    C149.104919,532.631042 152.725037,532.336731 157.209686,528.355103
    C158.452759,527.251404 159.611282,526.050049 160.778748,524.864075
    C168.370789,517.151794 176.130951,509.594025 183.462662,501.641449
    C186.854401,497.962463 189.046524,498.381531 192.289673,501.731049
    C201.669495,511.418457 211.270782,520.894531 220.900421,530.335938
    C227.948807,537.246521 228.855789,537.206116 235.763382,530.299438
    C249.775070,516.289612 263.733063,502.226074 278.198517,487.664307
    M245.660355,423.135529
    C244.541046,424.360077 243.261551,425.474274 242.329193,426.827606
    C237.383972,434.005951 236.569244,441.610840 240.749939,449.362671
    C244.957809,457.164917 251.780670,461.585144 260.563477,461.414307
    C270.267883,461.225555 278.768219,454.045685 281.234009,445.293304
    C283.777679,436.264343 280.148987,426.726715 272.111298,421.315277
    C263.882202,415.774963 255.086700,416.230377 245.660355,423.135529
  "/>
</svg>
